# xmcd
#
# Track frame offsets:
#	150
#	18772
#	41107
#	67172
#	82625
#	96940
#	122380
#	134745
#	148232
#	158930
#	168925
#	181777
#	192487
#	204495
#	223397
#	237292
#	257710
#	271765
#	285277
#	302582
#	317240
#	328022
#	338000
#
# Disc length: 4701
#
# Revision: 3
# Processed by: cddbd v1.5.1PL0 Copyright (c) Steve Scherf et al.
# Submitted via: VisiTrax 2.9.10.228 - For more info visit www.synapsa.com
# Normalized: r2:DSETVAR1
#
DISCID=51125b17
DTITLE=Various Artist - Fallen Angels - Legendary Country Rock Artists
DYEAR=1999
DGENRE=Country
TTITLE0=The Jayhawks - Two Angels
TTITLE1=Guy Clark - L.A.Freeway
TTITLE2=Cowboy Junkies - Powderfinger
TTITLE3=Crazy Horse - Going Down Again
TTITLE4=Michael Nesmith - Silver Moon
TTITLE5=Pure Prarie League - You're Betwen Me
TTITLE6=Pure Prarie League - Tears
TTITLE7=Rio Grande - Me And My Wife
TTITLE8=The Youngbloods - Grizzely Bear
TTITLE9=The Youngbloods - Sugar Babe
TTITLE10=The Lovin' Spoonful - Never Goin' Back (To Nashville Anymore)
TTITLE11=Swampwater - A Song I Heard
TTITLE12=Swampwater - One Note Man
TTITLE13=Alabama - Why Lady Why
TTITLE14=The  Outlaws - There Goes Another Love Song
TTITLE15=Dickey Betts and Great Southern - Atlanta's Burning Down
TTITLE16=Waylon Jennings - Old Five And Dimers (Like Me)
TTITLE17=Gary Stewart - Out Of Hand
TTITLE18=John Hartford - I Didn't Know The World Would Last This Long
TTITLE19=The Everly Brothers - Lay It Down
TTITLE20=Gene Vincent - Oh Lonesome Me
TTITLE21=Gram Parsons and ISB - Just Can't Take It Anymore
TTITLE22=Gram Parsons and ISB - November Nights
EXTD=YEAR: 1999
EXTT0=
EXTT1=
EXTT2=
EXTT3=
EXTT4=
EXTT5=
EXTT6=
EXTT7=
EXTT8=
EXTT9=
EXTT10=
EXTT11=
EXTT12=
EXTT13=
EXTT14=
EXTT15=
EXTT16=
EXTT17=
EXTT18=
EXTT19=
EXTT20=
EXTT21=
EXTT22=
PLAYORDER=
